<?xml version="1.0" standalone="no"?><!DOCTYPE svg PUBLIC "-//W3C//DTD SVG 1.1//EN" "http://www.w3.org/Graphics/SVG/1.1/DTD/svg11.dtd"><svg t="1505991735822" class="icon" style="" viewBox="0 0 1024 1024" version="1.1" xmlns="http://www.w3.org/2000/svg" p-id="931" xmlns:xlink="http://www.w3.org/1999/xlink" width="200" height="200"><defs><style type="text/css"></style></defs><path d="M681.6 492.8c19.2 9.6 19.2 30.4 0 40L444.8 672c-19.2 9.6-36.8 3.2-36.8-19.2L408 376c0-24 16-33.6 36.8-19.2L681.6 492.8 681.6 492.8zM512 968c249.6 0 456-203.2 456-456S761.6 56 512 56C262.4 56 56 262.4 56 512S262.4 968 512 968L512 968zM512 1008C240 1008 16 784 16 512S240 16 512 16C784 16 1008 240 1008 512S784 1008 512 1008L512 1008z" p-id="932" fill="#FFFFFF"></path></svg>